<svg width="28" height="33" viewBox="0 0 28 33" fill="none" xmlns="http://www.w3.org/2000/svg">
<path d="M26.1947 10.9105C26.0091 11.0545 22.7318 12.9012 22.7318 17.0074C22.7318 21.7569 26.902 23.4372 27.0269 23.4788C27.0077 23.5812 26.3644 25.7799 24.8281 28.0203C23.4583 29.9918 22.0277 31.9601 19.8514 31.9601C17.675 31.9601 17.1149 30.6959 14.6026 30.6959C12.1542 30.6959 11.2837 32.0017 9.29295 32.0017C7.30225 32.0017 5.91323 30.1774 4.31619 27.9371C2.46631 25.3063 0.97168 21.2192 0.97168 17.3402C0.97168 11.1185 5.0171 7.81879 8.9985 7.81879C11.114 7.81879 12.8775 9.20781 14.2057 9.20781C15.4699 9.20781 17.4414 7.73558 19.8482 7.73558C20.7603 7.73558 24.0376 7.81879 26.1947 10.9105ZM18.7056 5.10158C19.7009 3.9206 20.405 2.28195 20.405 0.643298C20.405 0.416064 20.3858 0.185628 20.3442 0C18.7248 0.0608093 16.7981 1.07856 15.6363 2.42597C14.7242 3.46293 13.8728 5.10158 13.8728 6.76263C13.8728 7.01227 13.9145 7.26191 13.9337 7.34192C14.0361 7.36112 14.2025 7.38353 14.3689 7.38353C15.8219 7.38353 17.6494 6.41058 18.7056 5.10158Z" fill="#A5AAB4"/>
</svg>
